<svg xmlns="http://www.w3.org/2000/svg" xml:space="preserve" width="652.858" height="652.405" viewBox="0 0 172.735 172.615"><g style="display:inline"><path d="M-153.757 342.867c-4.358-.938-6.482-4.115-6.482-9.697 0-3.44 0-3.44-8.599-3.46-21.718-.05-41.13-8.758-53.525-24.01-1.001-1.232-1.012-1.237-2.646-1.238-2.541 0-4.572-1.066-5.865-3.078-11.456-17.821-16.262-35.494-11.164-41.055.618-.675.723-.026-1.057-6.534-4.239-15.495 3.48-40.275 14.923-47.914 2.59-1.729 2.713-1.884 2.713-3.42 0-3.45 2.596-6.255 8.335-9.01 4.976-2.389 5.52-2.539 9.9-2.727 3.815-.165 3.815-.165 4.638-1.355 2.358-3.414 10.745-3.918 21.445-1.288 5.683 1.396 10.105 3.042 17.14 6.376 3.427 1.625 3.209 1.79 3.761-2.84 2.309-19.322 22.216-27.712 35.627-15.013.958.907.975.912 2.328.622 14.695-3.152 27.428 17.272 20.247 32.477-.505 1.07-.919 2.04-.919 2.157 0 .115 1.543 1.599 3.43 3.296 7.877 7.09 18.318 19.97 21.936 27.061.28.552 1.35 1.749 2.374 2.66 4.182 3.716 4.739 7.362 1.979 12.96-1.018 2.065-1.538 2.552-4.303 4.028-2.001 1.067-2.012 1.11-1.19 4.498 1.153 4.752.568 8.564-1.674 10.902-.94.98-.94.98-.438 3.704 2.535 13.737-3.591 22.51-11.936 17.091-1.168-.758-1.538-.857-3.324-.887-2.55-.043-3.99-.763-5.004-2.5-.948-1.627-1.444-1.552-2.62.397-.75 1.241-1.264 1.752-2.362 2.342-1.782.958-1.858 1.2-.84 2.68 3.549 5.158 4.22 12.104 1.7 17.57-.744 1.612-.903 2.27-.903 3.736 0 9.41-15.28 14.117-17.17 5.29-.284-1.319-.685-1.722-3.582-3.595-2.261-1.462-2.21-1.483-3.322 1.38-5.007 12.888-14.539 20.332-23.551 18.394m5.888-5.51c6.102-2.38 12.161-10.465 13.804-18.422.835-4.041.482-4.242-2.63-1.492-2.854 2.522-5.349 4.39-8.485 6.352-7.959 4.978-9.32 6.181-9.873 8.723-.921 4.234 2.62 6.62 7.184 4.839m-16.432-12.913c17.808-1.007 33.372-11.459 42.167-28.316 4.427-8.486 9.472-11.252 10.313-5.655.518 3.446 4.109 3.322 4.897-.17 1.633-7.24-8.22-11.942-13.953-6.658-2.12 1.955-3.065 3.561-6.01 10.223-3.064 6.929-7.597 12.143-8.431 9.695-.875-2.568-3.242-5.568-5.874-7.447-3.422-2.442-4.124-2.057-1.47.806 6.155 6.638 5.913 11.171-.827 15.495-13.607 8.728-31.01 8.65-47.442-.215-6.462-3.487-18.965-12.714-22.866-16.876-1.532-1.634-1.61-1.347-.33 1.202 2.297 4.577.103 3.73-6.106-2.358-1.42-1.392-2.58-2.404-2.58-2.25 0 .334 1.29 3.564 1.574 3.944.11.145.503 1.064.874 2.042 5.256 13.835 33.256 28.118 52.453 26.757.582-.041 2.207-.14 3.61-.22m49.13-4.663c7.048-2.38 8.524-12.248 2.689-17.98-3.082-3.027-5.403-2.754-2.755.325 3.56 4.14 3.81 8.475.622 10.785-4.225 3.06-7.99-.902-5.331-5.611 1.447-2.565-.869-1.894-3.117.903-5.631 7.008-.568 14.435 7.892 11.578m-42.047-19.673c1.953-1.01 4.303-4.654 5.147-7.982 1.091-4.299.825-6.416-1.569-12.47-.953-2.412-1.96-5.338-2.239-6.502-1.095-4.588-2.091-1.35-1.066 3.468.512 2.41.217 2.276-1.176-.53-1.479-2.98-1.779-4.918-1.084-7.009.468-1.41 1.973-3.2 1.676-1.993-.119.48-.037.593.424.584.738-.014 2.15-.819 2.184-1.245.062-.768.133-.86.663-.86.387 0 .511.121.406.397-.234.61.183.48 1.664-.517 2.967-1.996 4.082-3.887 4.38-7.42.251-2.992.318-3.164 1.488-3.821.822-.462 1.374-.57 2.56-.501 1.513.088 1.513.088 1.591-1.565.167-3.496-1.872-5.675-8.221-8.784-8.26-4.045-12.522-9.525-12.413-15.964.055-3.241-.088-3.804-1.438-5.68-.423-.589-.417-.595.604-.595 2.546 0 3.398 1.526 3.398 6.085 0 7.71 8.277 14.773 12.826 10.945 2.018-1.698.996-6.447-1.388-6.447-.541 0-1.798-1.235-2.058-2.022-.59-1.788.666-2.994 3.122-3.001 1.522-.004 1.608-.103.932-1.068-1.185-1.69-2.698-2.527-5.218-2.884-2.944-.417-3.74-1.274-4.51-4.86-1.148-5.351-3.614-7.653-8.718-8.138-4.241-.402-6.588-1.106-8.058-2.417-7.679-6.847-26.07-8.097-37.2-2.527-5.708 2.856-9.548 6.745-4.784 4.844 4.467-1.782 4.15-.055-.508 2.768-3.364 2.039-6.842 4.793-9.558 7.57-4.848 4.958-4.41 1.418.789-6.377 3.76-5.638 2.71-7.015-1.977-2.593-11.306 10.666-15.684 32.653-9.472 47.574 1.811 4.352 3.405 4.032 2.277-.458-1.875-7.46-1.921-14.267-.135-19.664 1.295-3.912 3.127-4.502 3.127-1.008 0 3.255 1.309 6.432 2.65 6.432.794 0 1.41-1.15 1.204-2.248-.194-1.034.068-1.18.754-.422 1.369 1.513 3.144 1.225 5.71-.925.8-.67 2.662-1.79 4.137-2.49 1.474-.697 3.155-1.698 3.736-2.222 1.516-1.37 1.617-1.149 1.073 2.354-.112.718 1.927.902 3.093.28 1.593-.853 2.804-3.856 1.868-4.633-.442-.366-.57-1.336-.177-1.336.318 0 3.925.693 6.379 1.225 3.382.734 7.565 2.642 9.706 4.43 4.53 3.78 6.958.546 4.028-5.369-3.341-6.744-11.043-10.696-16.588-8.51-1.74.686-1.644.698-1.644-.207 0-.417-.252-1.078-.56-1.47-1.527-1.94 6.958-3.606 12.308-2.416 6.59 1.466 10.108 5.122 16.084 16.712 4.006 7.772 4.337 9.798 2.5 15.288-.53 1.584-.975 3.072-.99 3.307-.014.234-.112.128-.216-.235-.149-.52-.339-.646-.886-.588-1.16.123-1.35-.626-1.158-4.557.193-3.938-.205-4.16-1.03-.579-1.323 5.734-.48 10.022 2.675 13.607 1.813 2.061 6.322 5.645 6.667 5.3.6-.6 1.647 1.188 1.647 2.81 0 2.802-2.19 3.898-4.458 2.23-.617-.453-1.188-.759-1.27-.678-.295.296 2.482 2.94 4.67 4.446 1.237.851 2.655 1.877 3.152 2.28.955.774 1.072.484.426-1.054-.6-1.428 2.14.8 3.192 2.595 2.628 4.485 3.526 9.625 2.496 14.285-.983 4.448-.114 6.302 2.354 5.025m-5.138-44.817c-3.962-1.891-4.44-5.442-1.227-9.105 1.583-1.805 1.816-2.7 1.259-4.834-.483-1.848-.467-1.88.671-1.305 2.49 1.255 3.428 3.046 2.741 5.23-.437 1.392-.437 1.392.614 2.97 2.95 4.434.26 9.104-4.058 7.044m-62.097 43.827c.742-.742.315-1.993-2.18-6.394-4.75-8.377-7.68-15.218-10.473-24.443-1.775-5.865-2.447-4.675-1.307 2.315 1.252 7.68 4.408 15.555 9.595 23.945 2.87 4.643 3.568 5.374 4.365 4.577m51.517-.65c.944-.943.006-3.185-2.331-5.574-2.174-2.221-1.87-2.257 2.034-.236 5.16 2.67 6.512 2.678 6.512.034 0-5.43-8.254-8.925-14.126-5.982-.89.446-3.077 1.227-4.862 1.736-1.785.51-4.88 1.591-6.88 2.405-1.998.813-4.11 1.6-4.692 1.748-2.191.557-2.378.642-2.47 1.122-.127.655.39.943 1.699.948 1.26.005 1.505.17 1.171.792-.165.309-.115.635.157 1.024.22.313.318.702.219.864-.562.908 3.101 1.02 7.696.234 6.378-1.09 9.264-.975 12.96.52 2.238.904 2.359.92 2.913.366m-27.356-7.383c.626-.324.735-.491.504-.77-.367-.442-.235-.52 1.581-.927.8-.18 1.662-.434 1.915-.564a2.5 2.5 0 0 1 .977-.236c.988 0 .832-.527-.412-1.386-2.992-2.066-3.394-2.598-4.431-5.865-.755-2.377-.784-2.334 2.086-3.085 4.399-1.153 8.898-4.52 11.13-8.329 1.582-2.698 1.376.672-.224 3.683-.48.903-1.9 2.712-3.24 4.127-2.549 2.69-3.175 3.975-1.936 3.975 4.199 0 9.223-7.107 9.24-13.069.006-2.703-.359-3.475-.812-1.715l-.35 1.355c-.029.108-.07-1.201-.093-2.91-.28-21.467-21.448-32.646-32.676-17.257-1.877 2.572-2.2 2.532-1.235-.156.675-1.883.545-2.495-.528-2.495-2.272 0-5.388 3.904-6.313 7.912-.598 2.587-.58 2.547-.954 2.17-.223-.226-.311-1.372-.287-3.749.04-3.808.015-3.893-.667-2.299-3.84 8.972-1.31 23.846 5.224 30.704 4.197 4.404 12.237 8.704 16.213 8.67 1.248-.01 1.85.1 2.083.381.18.218.56.396.842.396.97 0 1.574.497 1.277 1.052-.504.94-.196 1.05 1.086.387m-8.366-7.694c-10.647-2.175-14.941-6.866-15.046-16.436-.037-3.436-.18-3.786-1.358-3.334-.773.297-.257-1.625.814-3.027.498-.653.906-1.312.906-1.466 0-.17.129-.15.328.049.262.262.249.38-.066.582-.285.184-.31.309-.088.453.17.11.348.552.397.984.077.666.206.786.858.793.682.007.817.155 1.219 1.334 2.959 8.68 11.947 12.876 19.425 9.067 8.016-4.084 7.63-17.564-.51-17.816-.873-.027-2.111-.188-2.752-.358-5.605-1.49-9.958 6.7-5.447 10.25 1.824 1.434 3.737-.232 2.379-2.072-1.704-2.31.988-4.029 3.061-1.955 3.393 3.393-.59 7.99-5.238 6.048-8.724-3.645-.826-16.956 9.266-15.617 8.405 1.115 11.393 12.935 5.238 20.722-4.472 5.658-14.364 6.797-21.06 2.425-3.158-2.061-4.1-2.242-4.1-.787 0 2.064 3.538 5.143 7.716 6.716.922.347 2.51 1.047 3.53 1.557 1.018.51 2.506 1.085 3.306 1.28 1.992.485-.602 1.052-2.778.608m74.218 3.639c3.392-3.566 1.12-11.72-4.221-15.15-2.275-1.46-2.485-.749-.531 1.8 1.406 1.835 1.544 2.373.371 1.451-2.45-1.928-4.783-.732-2.465 1.264 2.12 1.827 2.942 3.838 3.083 7.546.166 4.401 1.485 5.484 3.763 3.089m-7.696-20.521c7.174-1.718 7.861-1.796 14.044-1.593 7.722.253 16.812-1.493 10.517-2.02-1.306-.11-3.728-.6-5.556-1.127-8.364-2.409-13.55-1.702-20.347 2.774a94 94 0 0 1-2.99 1.888c-.678.401-1.159.848-1.07.992.218.352-.134.411 5.402-.914m49.551-2.032c4.324-.918 9.42-5.829 6.612-6.37-.368-.07-.422-.408-.354-2.198.044-1.163-.064-2.688-.24-3.388-.585-2.318-.01-2.221 2.583.437 2.28 2.336 2.28 2.336 1.53 2.933-1.417 1.13.268 2.174 2.384 1.476 4.869-1.607 4.351-10.5-.565-9.703-.743.12-.903.085-.67-.15 2.568-2.566-15.81-24.638-30.201-36.275-2.729-2.206-2.6-.626.339 4.16.965 1.571-.067.894-2.732-1.794-4.165-4.2-5.465-7.426-6.78-16.82-2.9-20.707-21.189-28.854-31.194-13.895-7.542 11.277-1.803 29.407 10.513 33.212 2.405.742 2.5.457.731-2.2-3.049-4.584-4.557-8.996-3.537-10.347.452-.6.486-.568 2.219 2.086 3.275 5.016 6.368 6.434 5.48 2.513-1.575-6.954.655-9.671 3.088-3.76 1.976 4.8 3.684 2.56 3.688-4.839.005-8.75-4-14.478-10.414-14.89-6.986-.448-10.675 5.828-9.348 15.9.266 2.02-.146 1.762-.89-.558-2.945-9.188 2.11-19.588 9.764-20.084 8.944-.58 15.556 8.065 15.077 19.71-.07 1.716-.023 3.406.106 3.754.183.495.057.968-.571 2.146-3.245 6.088-2.343 11.134 2.439 13.652 2.086 1.1 2.217 1.498.626 1.898-2.417.609-3.328 2.491-3.347 6.915-.013 2.778-.013 2.778-1.259.28-1.596-3.198-3.049-4.718-5.32-5.564-4.424-1.648-8.178-.023-5.98 2.59 1.022 1.214.684 2.329-.605 1.992-1.715-.449-2.399.614-1.384 2.153.7 1.063.898 2.636.533 4.238-3.056 13.41 7.388 23.791 21.83 21.699 6.632-.961 10.13-.448 16.892 2.478 3.146 1.362 6.624 2.41 8.022 2.417 1.258.007 1.665.442.74.794-4.383 1.668-6.984 1.372-13.484-1.536-2.589-1.158-4.101-1.583-4.101-1.153 0 .148.23.341.512.43.282.09 1.651.93 3.042 1.866 5.552 3.738 9.515 4.796 14.226 3.795m-32.938-14.541c-4.459-.907-8.494-4.939-9.463-9.454-.388-1.809-.013-2.61.692-1.478 2.878 4.621 4.536 6.355 6.94 7.255 4.617 1.73 6.601-.656 4.954-5.958-.361-1.164-.659-2.174-.661-2.243-.01-.326 4.877 4.762 5.566 5.794 2.631 3.945-1.85 7.34-8.028 6.084m15.469-8.047c-4.867-2.266-9.239-11.087-6.997-14.12 2.677-3.622 8.65-2.432 13.513 2.694a300 300 0 0 0 4.73 4.848c3.596 3.587 5.075 6.632 2.68 5.517-1.853-.863-2.565-.825-5.24.276-3.79 1.561-6.494 1.805-8.686.785m5.41-3.664c2.995-3.482-5.211-10.929-8.462-7.678-3.148 3.147.762 8.656 6.014 8.473 1.618-.056 1.887-.143 2.447-.795m-2.73-29.548c2.116-1.665 2.925-9.391 1.54-14.71-1.875-7.19-7.181-12.154-13.168-12.32-4.096-.112-3.757 1.847.998 5.782 2.343 1.938 2.956 2.734 2.107 2.734-3.614 0 .764 14.883 5.375 18.274 1.237.91 2.203.983 3.147.24m-54.318-6.214c.821-.99.018-1.593-5.69-4.27-13.45-6.307-31.88-9.6-31.307-5.594.092.644-.11.591 4.848 1.273 4.48.617 8.895 2.028 16.14 5.156 7.658 3.307 9.233 3.756 13.275 3.786 1.77.013 2.51-.082 2.734-.35" style="display:inline;opacity:1;fill:#a3e635;stroke:none;stroke-width:5.55625;stroke-linecap:square;stroke-linejoin:round;stroke-dasharray:none;stroke-opacity:1;paint-order:markers stroke fill" transform="translate(244.273 -170.556)"/></g></svg>
